<?xml version="1.0" encoding="UTF-8"?>
<svg id="Layer_1" data-name="Layer 1" xmlns="http://www.w3.org/2000/svg" viewBox="0 0 1079.65 566.73">
  <defs>
    <style>
      .cls-1 {
        stroke-width: 0px;
      }
    </style>
  </defs>
  <path class="cls-1" d="m919.69,81.64C818.1,28.99,683.2,0,539.83,0S261.55,28.99,159.96,81.64c-49.8,25.81-88.98,55.96-116.44,89.6C14.64,206.63,0,244.35,0,283.37s14.64,76.74,43.52,112.12c27.46,33.65,66.64,63.8,116.44,89.6,101.59,52.65,236.5,81.64,379.86,81.64s278.27-28.99,379.86-81.64c49.8-25.81,88.98-55.96,116.44-89.6,28.88-35.38,43.52-73.11,43.52-112.12s-14.64-76.74-43.52-112.12c-27.46-33.65-66.64-63.8-116.44-89.6Zm-80.74-2.53c78.21,40.53,121.28,93.85,121.28,150.14,0,11.53-1.81,22.94-5.36,34.14-21.06-35.04-58.04-66.99-109.02-93.41-81.87-42.43-190.55-65.79-306.02-65.79s-224.16,23.36-306.03,65.79c-50.98,26.42-87.96,58.37-109.02,93.41-3.55-11.2-5.36-22.61-5.36-34.14,0-56.29,43.07-109.61,121.28-150.14C320.48,37.77,426.71,15,539.83,15s219.35,22.77,299.12,64.11Zm121.28,254.33c0,56.29-43.07,109.61-121.28,150.14-79.77,41.34-186,64.11-299.12,64.11s-219.35-22.77-299.12-64.11c-78.21-40.53-121.28-93.85-121.28-150.14,0-11.53,1.81-22.94,5.36-34.14,21.06,35.04,58.04,66.99,109.02,93.41,81.87,42.43,190.55,65.79,306.03,65.79s224.16-23.36,306.02-65.79c50.98-26.42,87.96-58.37,109.02-93.41,3.55,11.2,5.36,22.61,5.36,34.14Zm-121.28,45.95c-79.77,41.34-186,64.11-299.12,64.11s-219.35-22.77-299.12-64.11c-53.53-27.74-90.59-61.47-108.66-98.05,18.07-36.58,55.13-70.31,108.66-98.05,79.77-41.34,186-64.11,299.12-64.11s219.35,22.77,299.12,64.11c53.53,27.74,90.59,61.47,108.66,98.05-18.06,36.58-55.13,70.31-108.66,98.05ZM15,283.37c0-70.75,53.93-137.66,151.87-188.41,21.44-11.11,44.41-21.14,68.67-30.04-.57.29-1.16.58-1.73.88-83.43,43.24-129.38,101.29-129.38,163.46,0,17.79,3.77,35.23,11.09,52.1-7.32,16.86-11.09,34.31-11.09,52.1,0,62.17,45.95,120.23,129.38,163.46,10.85,5.62,22.17,10.9,33.92,15.84-36.28-11.35-70.14-25.05-100.85-40.97C68.93,421.02,15,354.11,15,283.37Zm897.79,188.41c-30.71,15.92-64.58,29.62-100.85,40.97,11.74-4.94,23.07-10.22,33.92-15.84,83.43-43.24,129.38-101.29,129.38-163.46,0-17.79-3.77-35.23-11.09-52.1,7.32-16.86,11.09-34.31,11.09-52.1,0-62.17-45.95-120.22-129.38-163.46-.57-.3-1.16-.58-1.73-.88,24.26,8.91,47.23,18.94,68.67,30.05,97.93,50.75,151.87,117.66,151.87,188.41s-53.93,137.66-151.87,188.41Z"/>
</svg>